<?xml version="1.0" encoding="UTF-8"?>
<svg id="Layer_1" xmlns="http://www.w3.org/2000/svg" version="1.1" viewBox="0 0 19.67 29.47">
  <!-- Generator: Adobe Illustrator 29.5.1, SVG Export Plug-In . SVG Version: 2.1.0 Build 141)  -->
  <defs>
    <style>
      .st0 {
        fill: #fff;
      }

      .st1 {
        fill: #5d48b5;
      }

      .st2 {
        opacity: .39;
      }

      .st3 {
        opacity: .35;
      }
    </style>
  </defs>
  <g>
    <path class="st0" d="M2.33,9.6H.25v-2.33h2.08v2.33ZM.29,9.55h2v-2.24H.29v2.24Z"/>
    <path class="st1" d="M2.58,9.85H0v-2.83h2.58v2.83ZM.54,9.3h1.5v-1.74H.54v1.74Z"/>
  </g>
  <g>
    <path class="st0" d="M19.42,9.33h-2.08v-2.33h2.08v2.33ZM17.38,9.28h2v-2.24h-2v2.24Z"/>
    <path class="st1" d="M19.67,9.58h-2.58v-2.83h2.58v2.83ZM17.64,9.03h1.5v-1.74h-1.5v1.74Z"/>
  </g>
  <g>
    <rect class="st0" x="9.66" y="2.32" width=".09" height="2.69"/>
    <rect class="st1" x="9.54" y="2.19" width=".34" height="2.94"/>
  </g>
  <g>
    <path class="st0" d="M9.72,2.36c-.52,0-.95-.47-.95-1.06s.42-1.06.95-1.06.95.47.95,1.06-.42,1.06-.95,1.06ZM9.72.33c-.48,0-.86.44-.86.97s.39.97.86.97.86-.44.86-.97-.39-.97-.86-.97Z"/>
    <path class="st1" d="M9.72,2.61c-.66,0-1.2-.59-1.2-1.31S9.06,0,9.72,0s1.2.59,1.2,1.31-.54,1.31-1.2,1.31ZM9.72.58c-.34,0-.61.32-.61.72s.27.72.61.72.61-.32.61-.72-.27-.72-.61-.72Z"/>
  </g>
  <g>
    <path class="st0" d="M16.99,11.24H2.55c-.3,0-.54-.24-.54-.54v-5.08c0-.3.24-.54.54-.54h14.44c.3,0,.54.24.54.54v5.08c0,.3-.24.54-.54.54ZM2.55,5.41c-.12,0-.21.09-.21.21v5.08c0,.12.09.21.21.21h14.44c.12,0,.21-.09.21-.21v-5.08c0-.12-.09-.21-.21-.21H2.55Z"/>
    <path class="st1" d="M16.99,11.49H2.55c-.44,0-.79-.35-.79-.79v-5.08c0-.43.35-.79.79-.79h14.44c.44,0,.79.35.79.79v5.08c0,.44-.35.79-.79.79ZM2.59,5.66v5.04l14.4-.04-.04-5.04s-14.36.04-14.36.04Z"/>
  </g>
  <g>
    <path class="st1" d="M13.36,8.83c-.33.52-.97.64-1.43.28s-.57-1.08-.25-1.6.97-.64,1.43-.28.57,1.08.25,1.6Z"/>
    <path class="st1" d="M7.72,8.83c-.33.52-.97.64-1.43.28s-.57-1.08-.25-1.6.97-.64,1.43-.28.57,1.08.25,1.6Z"/>
  </g>
  <g>
    <path class="st0" d="M9.79,29.22c-4.38,0-7.94-3.56-7.94-7.94s3.56-7.94,7.94-7.94,7.94,3.56,7.94,7.94-3.56,7.94-7.94,7.94ZM9.79,13.4c-4.35,0-7.89,3.54-7.89,7.89s3.54,7.89,7.89,7.89,7.89-3.54,7.89-7.89-3.54-7.89-7.89-7.89Z"/>
    <path class="st1" d="M9.79,29.47c-4.51,0-8.19-3.67-8.19-8.19s3.67-8.19,8.19-8.19,8.19,3.67,8.19,8.19-3.67,8.19-8.19,8.19ZM9.79,13.65c-4.21,0-7.64,3.43-7.64,7.64s3.43,7.64,7.64,7.64,7.64-3.43,7.64-7.64-3.43-7.64-7.64-7.64Z"/>
  </g>
  <g>
    <circle class="st1" cx="9.82" cy="21.33" r="2.64"/>
    <path class="st1" d="M9.82,24.05c-1.5,0-2.72-1.22-2.72-2.72s1.22-2.72,2.72-2.72,2.72,1.22,2.72,2.72-1.22,2.72-2.72,2.72ZM9.82,18.78c-1.41,0-2.55,1.14-2.55,2.55s1.14,2.55,2.55,2.55,2.55-1.14,2.55-2.55-1.14-2.55-2.55-2.55Z"/>
  </g>
  <g class="st3">
    <g>
      <path class="st0" d="M10.08,27.3c-.76,0-1.55-.13-2.34-.4-.05-.02-.07-.06-.05-.11.02-.05.06-.07.11-.05,3.42,1.15,6.68-.33,7.75-3.52.51-1.53.35-3.19-.45-4.66-.8-1.48-2.16-2.6-3.81-3.15-.05-.02-.07-.06-.05-.11.02-.05.06-.07.11-.05,1.69.57,3.08,1.72,3.91,3.23.83,1.52.99,3.22.46,4.8-.85,2.54-3.05,4.03-5.63,4.03h0Z"/>
      <path class="st1" d="M10.08,27.55c-.8,0-1.62-.14-2.42-.41-.18-.06-.27-.25-.21-.43.03-.08.09-.15.17-.19s.17-.05.26-.02c1.59.53,3.22.49,4.57-.13,1.35-.61,2.37-1.76,2.86-3.24.49-1.46.34-3.05-.43-4.46-.77-1.42-2.08-2.5-3.67-3.03-.18-.06-.27-.25-.21-.43.03-.08.09-.15.17-.19s.17-.05.26-.02c1.75.59,3.19,1.78,4.05,3.35.86,1.58,1.03,3.35.48,5-.87,2.59-3.12,4.2-5.86,4.2h-.02ZM7.71,26.98h0ZM11.26,15.48h0Z"/>
    </g>
  </g>
  <g>
    <path class="st0" d="M9.83,27.38c-.99,0-1.96-.23-2.85-.69-1.48-.76-2.59-2.06-3.13-3.67-1.08-3.23.81-6.58,4.39-7.78.05-.02.09,0,.11.05s0,.09-.05.11c-3.5,1.17-5.34,4.42-4.28,7.56.52,1.56,1.6,2.83,3.05,3.57,1.48.76,3.18.88,4.8.33.05-.02.09,0,.11.05s0,.09-.05.11c-.69.23-1.39.35-2.09.35h0Z"/>
    <path class="st1" d="M9.83,27.63c-1.04,0-2.04-.24-2.96-.72-1.54-.79-2.7-2.14-3.25-3.81-.55-1.63-.38-3.35.46-4.85.84-1.49,2.29-2.64,4.09-3.24.08-.03.17-.02.25.02.08.04.14.11.17.2s.02.18-.02.26-.11.14-.19.17c-3.36,1.13-5.13,4.24-4.13,7.25.5,1.5,1.54,2.71,2.92,3.42,1.42.73,3.05.84,4.61.32.09-.03.18-.02.26.02s.14.11.17.2c.06.17-.03.36-.21.42-.71.24-1.44.36-2.17.36v-.02ZM11.94,27.1h0ZM8.33,15.48h0ZM8.22,15.17h0Z"/>
  </g>
  <g class="st2">
    <g>
      <path class="st0" d="M9.82,27.29c-3.43,0-6.22-2.68-6.22-5.97,0-.05.04-.09.09-.09s.09.04.09.09c0,3.2,2.71,5.8,6.05,5.8s6.05-2.6,6.05-5.8c0-.05.04-.09.09-.09s.09.04.09.09c0,3.29-2.79,5.97-6.22,5.97h-.02Z"/>
      <path class="st1" d="M9.82,27.54c-3.57,0-6.47-2.79-6.47-6.22,0-.19.15-.34.34-.34s.34.15.34.34c0,3.06,2.6,5.55,5.8,5.55s5.8-2.49,5.8-5.55c0-.19.15-.34.34-.34s.34.15.34.34c0,3.43-2.9,6.22-6.47,6.22h-.02Z"/>
    </g>
  </g>
  <rect class="st1" x="9.63" y="11.12" width=".29" height="2.43"/>
  <circle class="st1" cx="14.86" cy="15.24" r=".51"/>
  <circle class="st1" cx="14.86" cy="27.33" r=".51"/>
  <circle class="st1" cx="4.97" cy="27.57" r=".51"/>
</svg>